<mxfile host="65bd71144e">
    <diagram name="Page-1" id="isx0nqcGKAZwt9ibI7e8">
        <mxGraphModel dx="5193" dy="1823" grid="1" gridSize="10" guides="1" tooltips="1" connect="1" arrows="1" fold="1" page="0" pageScale="1" pageWidth="1100" pageHeight="850" background="none" math="0" shadow="0">
            <root>
                <mxCell id="0"/>
                <mxCell id="1" parent="0"/>
                <mxCell id="6" value="" style="group;rounded=1;" parent="1" vertex="1" connectable="0">
                    <mxGeometry x="-950" y="440" width="401" height="330" as="geometry"/>
                </mxCell>
                <mxCell id="2" value="&lt;font style=&quot;&quot;&gt;&lt;font style=&quot;font-size: 26px;&quot;&gt;Dataset&lt;/font&gt;&lt;br&gt;&lt;br&gt;&lt;br&gt;&lt;br&gt;&lt;br&gt;&lt;br&gt;&lt;br&gt;&lt;br&gt;&lt;br&gt;&lt;br&gt;&lt;br&gt;&lt;br&gt;&lt;br&gt;&lt;br&gt;&lt;br&gt;&lt;br&gt;&lt;br&gt;&lt;/font&gt;" style="rounded=1;whiteSpace=wrap;html=1;" parent="6" vertex="1">
                    <mxGeometry width="400" height="330" as="geometry"/>
                </mxCell>
                <mxCell id="3" value="Classes: 38" style="rounded=1;whiteSpace=wrap;html=1;fontSize=20;" parent="6" vertex="1">
                    <mxGeometry x="55" y="90" width="135" height="104.21" as="geometry"/>
                </mxCell>
                <mxCell id="4" value="Target: 38" style="rounded=1;whiteSpace=wrap;html=1;fontSize=20;" parent="6" vertex="1">
                    <mxGeometry x="215" y="90" width="135" height="104.21" as="geometry"/>
                </mxCell>
                <mxCell id="22" value="&lt;span style=&quot;font-size: 20px;&quot;&gt;Images: ~80000&lt;/span&gt;" style="rounded=1;whiteSpace=wrap;html=1;fontSize=26;" parent="6" vertex="1">
                    <mxGeometry x="55" y="233" width="295" height="60" as="geometry"/>
                </mxCell>
                <mxCell id="17" value="" style="group;rounded=1;" parent="1" vertex="1" connectable="0">
                    <mxGeometry x="-460" y="510" width="260" height="190" as="geometry"/>
                </mxCell>
                <mxCell id="18" value="&lt;font style=&quot;font-size: 23px;&quot;&gt;Preprocessing&lt;br&gt;&amp;amp;&lt;br&gt;Visualisation&lt;br&gt;&lt;/font&gt;" style="rounded=1;whiteSpace=wrap;html=1;" parent="17" vertex="1">
                    <mxGeometry width="259.3516209476309" height="190" as="geometry"/>
                </mxCell>
                <mxCell id="25" value="" style="group;rounded=1;" parent="1" vertex="1" connectable="0">
                    <mxGeometry x="-30" y="-190" width="1320" height="1600" as="geometry"/>
                </mxCell>
                <mxCell id="33" value="" style="group;rounded=1;" parent="25" vertex="1" connectable="0">
                    <mxGeometry width="1320" height="1600" as="geometry"/>
                </mxCell>
                <mxCell id="24" value="&lt;font style=&quot;font-size: 50px;&quot;&gt;Neural Network Architecture&lt;/font&gt;&lt;br&gt;&lt;br&gt;&lt;br&gt;&lt;br&gt;&lt;br&gt;&lt;br&gt;&lt;br&gt;&lt;br&gt;&lt;br&gt;&lt;br&gt;&lt;br&gt;&lt;br&gt;&lt;br&gt;&lt;br&gt;&lt;br&gt;&lt;br&gt;&lt;br&gt;&lt;br&gt;&lt;br&gt;&lt;br&gt;&lt;br&gt;&lt;br&gt;&lt;br&gt;&lt;br&gt;&lt;br&gt;&lt;br&gt;&lt;br&gt;&lt;br&gt;&lt;br&gt;&lt;br&gt;&lt;br&gt;&lt;br&gt;&lt;br&gt;&lt;br&gt;&lt;br&gt;&lt;br&gt;&lt;br&gt;&lt;br&gt;&lt;br&gt;&lt;br&gt;&lt;br&gt;&lt;br&gt;&lt;br&gt;&lt;br&gt;&lt;br&gt;&lt;br&gt;&lt;br&gt;&lt;br&gt;&lt;br&gt;&lt;br&gt;&lt;br&gt;&lt;br&gt;&lt;br&gt;&lt;br&gt;&lt;br&gt;&lt;br&gt;&lt;br&gt;&lt;br&gt;&lt;br&gt;&lt;br&gt;&lt;br&gt;&lt;br&gt;" style="rounded=1;whiteSpace=wrap;html=1;fontSize=20;" parent="33" vertex="1">
                    <mxGeometry width="1320" height="1600" as="geometry"/>
                </mxCell>
                <mxCell id="OT1QADH4c9V43DRPaBbd-1" value="" style="shape=table;startSize=0;container=1;collapsible=0;childLayout=tableLayout;fontSize=16;rounded=1;" parent="33" vertex="1">
                    <mxGeometry x="115.23809523809524" y="121" width="492.3809523809524" height="1388" as="geometry"/>
                </mxCell>
                <mxCell id="OT1QADH4c9V43DRPaBbd-2" value="" style="shape=tableRow;horizontal=0;startSize=0;swimlaneHead=0;swimlaneBody=0;strokeColor=inherit;top=0;left=0;bottom=0;right=0;collapsible=0;dropTarget=0;fillColor=none;points=[[0,0.5],[1,0.5]];portConstraint=eastwest;fontSize=16;rounded=1;" parent="OT1QADH4c9V43DRPaBbd-1" vertex="1">
                    <mxGeometry width="492.3809523809524" height="73" as="geometry"/>
                </mxCell>
                <mxCell id="OT1QADH4c9V43DRPaBbd-3" value="&lt;b&gt;Layer&lt;/b&gt;" style="shape=partialRectangle;html=1;whiteSpace=wrap;connectable=0;strokeColor=inherit;overflow=hidden;fillColor=none;top=0;left=0;bottom=0;right=0;pointerEvents=1;fontSize=16;rounded=1;" parent="OT1QADH4c9V43DRPaBbd-2" vertex="1">
                    <mxGeometry width="163" height="73" as="geometry">
                        <mxRectangle width="163" height="73" as="alternateBounds"/>
                    </mxGeometry>
                </mxCell>
                <mxCell id="OT1QADH4c9V43DRPaBbd-4" value="&lt;b&gt;Output Shape&lt;/b&gt;" style="shape=partialRectangle;html=1;whiteSpace=wrap;connectable=0;strokeColor=inherit;overflow=hidden;fillColor=none;top=0;left=0;bottom=0;right=0;pointerEvents=1;fontSize=16;rounded=1;" parent="OT1QADH4c9V43DRPaBbd-2" vertex="1">
                    <mxGeometry x="163" width="166" height="73" as="geometry">
                        <mxRectangle width="166" height="73" as="alternateBounds"/>
                    </mxGeometry>
                </mxCell>
                <mxCell id="OT1QADH4c9V43DRPaBbd-5" value="&lt;b&gt;Parameters&lt;/b&gt;" style="shape=partialRectangle;html=1;whiteSpace=wrap;connectable=0;strokeColor=inherit;overflow=hidden;fillColor=none;top=0;left=0;bottom=0;right=0;pointerEvents=1;fontSize=16;rounded=1;" parent="OT1QADH4c9V43DRPaBbd-2" vertex="1">
                    <mxGeometry x="329" width="163" height="73" as="geometry">
                        <mxRectangle width="163" height="73" as="alternateBounds"/>
                    </mxGeometry>
                </mxCell>
                <mxCell id="OT1QADH4c9V43DRPaBbd-6" value="" style="shape=tableRow;horizontal=0;startSize=0;swimlaneHead=0;swimlaneBody=0;strokeColor=inherit;top=0;left=0;bottom=0;right=0;collapsible=0;dropTarget=0;fillColor=none;points=[[0,0.5],[1,0.5]];portConstraint=eastwest;fontSize=16;rounded=1;" parent="OT1QADH4c9V43DRPaBbd-1" vertex="1">
                    <mxGeometry y="73" width="492.3809523809524" height="74" as="geometry"/>
                </mxCell>
                <mxCell id="OT1QADH4c9V43DRPaBbd-7" value="Input" style="shape=partialRectangle;html=1;whiteSpace=wrap;connectable=0;strokeColor=inherit;overflow=hidden;fillColor=none;top=0;left=0;bottom=0;right=0;pointerEvents=1;fontSize=16;rounded=1;" parent="OT1QADH4c9V43DRPaBbd-6" vertex="1">
                    <mxGeometry width="163" height="74" as="geometry">
                        <mxRectangle width="163" height="74" as="alternateBounds"/>
                    </mxGeometry>
                </mxCell>
                <mxCell id="OT1QADH4c9V43DRPaBbd-8" value="(128, 128, 3)" style="shape=partialRectangle;html=1;whiteSpace=wrap;connectable=0;strokeColor=inherit;overflow=hidden;fillColor=none;top=0;left=0;bottom=0;right=0;pointerEvents=1;fontSize=16;rounded=1;" parent="OT1QADH4c9V43DRPaBbd-6" vertex="1">
                    <mxGeometry x="163" width="166" height="74" as="geometry">
                        <mxRectangle width="166" height="74" as="alternateBounds"/>
                    </mxGeometry>
                </mxCell>
                <mxCell id="OT1QADH4c9V43DRPaBbd-9" value="-" style="shape=partialRectangle;html=1;whiteSpace=wrap;connectable=0;strokeColor=inherit;overflow=hidden;fillColor=none;top=0;left=0;bottom=0;right=0;pointerEvents=1;fontSize=16;rounded=1;" parent="OT1QADH4c9V43DRPaBbd-6" vertex="1">
                    <mxGeometry x="329" width="163" height="74" as="geometry">
                        <mxRectangle width="163" height="74" as="alternateBounds"/>
                    </mxGeometry>
                </mxCell>
                <mxCell id="OT1QADH4c9V43DRPaBbd-10" value="" style="shape=tableRow;horizontal=0;startSize=0;swimlaneHead=0;swimlaneBody=0;strokeColor=inherit;top=0;left=0;bottom=0;right=0;collapsible=0;dropTarget=0;fillColor=none;points=[[0,0.5],[1,0.5]];portConstraint=eastwest;fontSize=16;rounded=1;" parent="OT1QADH4c9V43DRPaBbd-1" vertex="1">
                    <mxGeometry y="147" width="492.3809523809524" height="73" as="geometry"/>
                </mxCell>
                <mxCell id="OT1QADH4c9V43DRPaBbd-11" value="Convolution" style="shape=partialRectangle;html=1;whiteSpace=wrap;connectable=0;strokeColor=inherit;overflow=hidden;fillColor=none;top=0;left=0;bottom=0;right=0;pointerEvents=1;fontSize=16;rounded=1;" parent="OT1QADH4c9V43DRPaBbd-10" vertex="1">
                    <mxGeometry width="163" height="73" as="geometry">
                        <mxRectangle width="163" height="73" as="alternateBounds"/>
                    </mxGeometry>
                </mxCell>
                <mxCell id="OT1QADH4c9V43DRPaBbd-12" value="(128, 128, 32)" style="shape=partialRectangle;html=1;whiteSpace=wrap;connectable=0;strokeColor=inherit;overflow=hidden;fillColor=none;top=0;left=0;bottom=0;right=0;pointerEvents=1;fontSize=16;rounded=1;" parent="OT1QADH4c9V43DRPaBbd-10" vertex="1">
                    <mxGeometry x="163" width="166" height="73" as="geometry">
                        <mxRectangle width="166" height="73" as="alternateBounds"/>
                    </mxGeometry>
                </mxCell>
                <mxCell id="OT1QADH4c9V43DRPaBbd-13" value="896" style="shape=partialRectangle;html=1;whiteSpace=wrap;connectable=0;strokeColor=inherit;overflow=hidden;fillColor=none;top=0;left=0;bottom=0;right=0;pointerEvents=1;fontSize=16;rounded=1;" parent="OT1QADH4c9V43DRPaBbd-10" vertex="1">
                    <mxGeometry x="329" width="163" height="73" as="geometry">
                        <mxRectangle width="163" height="73" as="alternateBounds"/>
                    </mxGeometry>
                </mxCell>
                <mxCell id="OT1QADH4c9V43DRPaBbd-15" style="shape=tableRow;horizontal=0;startSize=0;swimlaneHead=0;swimlaneBody=0;strokeColor=inherit;top=0;left=0;bottom=0;right=0;collapsible=0;dropTarget=0;fillColor=none;points=[[0,0.5],[1,0.5]];portConstraint=eastwest;fontSize=16;rounded=1;" parent="OT1QADH4c9V43DRPaBbd-1" vertex="1">
                    <mxGeometry y="220" width="492.3809523809524" height="73" as="geometry"/>
                </mxCell>
                <mxCell id="OT1QADH4c9V43DRPaBbd-16" value="Max Pool" style="shape=partialRectangle;html=1;whiteSpace=wrap;connectable=0;strokeColor=inherit;overflow=hidden;fillColor=none;top=0;left=0;bottom=0;right=0;pointerEvents=1;fontSize=16;rounded=1;" parent="OT1QADH4c9V43DRPaBbd-15" vertex="1">
                    <mxGeometry width="163" height="73" as="geometry">
                        <mxRectangle width="163" height="73" as="alternateBounds"/>
                    </mxGeometry>
                </mxCell>
                <mxCell id="OT1QADH4c9V43DRPaBbd-17" value="(64, 64, 32)" style="shape=partialRectangle;html=1;whiteSpace=wrap;connectable=0;strokeColor=inherit;overflow=hidden;fillColor=none;top=0;left=0;bottom=0;right=0;pointerEvents=1;fontSize=16;rounded=1;" parent="OT1QADH4c9V43DRPaBbd-15" vertex="1">
                    <mxGeometry x="163" width="166" height="73" as="geometry">
                        <mxRectangle width="166" height="73" as="alternateBounds"/>
                    </mxGeometry>
                </mxCell>
                <mxCell id="OT1QADH4c9V43DRPaBbd-18" value="0" style="shape=partialRectangle;html=1;whiteSpace=wrap;connectable=0;strokeColor=inherit;overflow=hidden;fillColor=none;top=0;left=0;bottom=0;right=0;pointerEvents=1;fontSize=16;rounded=1;" parent="OT1QADH4c9V43DRPaBbd-15" vertex="1">
                    <mxGeometry x="329" width="163" height="73" as="geometry">
                        <mxRectangle width="163" height="73" as="alternateBounds"/>
                    </mxGeometry>
                </mxCell>
                <mxCell id="OT1QADH4c9V43DRPaBbd-19" style="shape=tableRow;horizontal=0;startSize=0;swimlaneHead=0;swimlaneBody=0;strokeColor=inherit;top=0;left=0;bottom=0;right=0;collapsible=0;dropTarget=0;fillColor=none;points=[[0,0.5],[1,0.5]];portConstraint=eastwest;fontSize=16;rounded=1;" parent="OT1QADH4c9V43DRPaBbd-1" vertex="1">
                    <mxGeometry y="293" width="492.3809523809524" height="73" as="geometry"/>
                </mxCell>
                <mxCell id="OT1QADH4c9V43DRPaBbd-20" value="Dropout" style="shape=partialRectangle;html=1;whiteSpace=wrap;connectable=0;strokeColor=inherit;overflow=hidden;fillColor=none;top=0;left=0;bottom=0;right=0;pointerEvents=1;fontSize=16;rounded=1;" parent="OT1QADH4c9V43DRPaBbd-19" vertex="1">
                    <mxGeometry width="163" height="73" as="geometry">
                        <mxRectangle width="163" height="73" as="alternateBounds"/>
                    </mxGeometry>
                </mxCell>
                <mxCell id="OT1QADH4c9V43DRPaBbd-21" value="(64, 64, 32)" style="shape=partialRectangle;html=1;whiteSpace=wrap;connectable=0;strokeColor=inherit;overflow=hidden;fillColor=none;top=0;left=0;bottom=0;right=0;pointerEvents=1;fontSize=16;rounded=1;" parent="OT1QADH4c9V43DRPaBbd-19" vertex="1">
                    <mxGeometry x="163" width="166" height="73" as="geometry">
                        <mxRectangle width="166" height="73" as="alternateBounds"/>
                    </mxGeometry>
                </mxCell>
                <mxCell id="OT1QADH4c9V43DRPaBbd-22" value="0" style="shape=partialRectangle;html=1;whiteSpace=wrap;connectable=0;strokeColor=inherit;overflow=hidden;fillColor=none;top=0;left=0;bottom=0;right=0;pointerEvents=1;fontSize=16;rounded=1;" parent="OT1QADH4c9V43DRPaBbd-19" vertex="1">
                    <mxGeometry x="329" width="163" height="73" as="geometry">
                        <mxRectangle width="163" height="73" as="alternateBounds"/>
                    </mxGeometry>
                </mxCell>
                <mxCell id="OT1QADH4c9V43DRPaBbd-23" style="shape=tableRow;horizontal=0;startSize=0;swimlaneHead=0;swimlaneBody=0;strokeColor=inherit;top=0;left=0;bottom=0;right=0;collapsible=0;dropTarget=0;fillColor=none;points=[[0,0.5],[1,0.5]];portConstraint=eastwest;fontSize=16;rounded=1;" parent="OT1QADH4c9V43DRPaBbd-1" vertex="1">
                    <mxGeometry y="366" width="492.3809523809524" height="73" as="geometry"/>
                </mxCell>
                <mxCell id="OT1QADH4c9V43DRPaBbd-24" value="Convolution" style="shape=partialRectangle;html=1;whiteSpace=wrap;connectable=0;strokeColor=inherit;overflow=hidden;fillColor=none;top=0;left=0;bottom=0;right=0;pointerEvents=1;fontSize=16;rounded=1;" parent="OT1QADH4c9V43DRPaBbd-23" vertex="1">
                    <mxGeometry width="163" height="73" as="geometry">
                        <mxRectangle width="163" height="73" as="alternateBounds"/>
                    </mxGeometry>
                </mxCell>
                <mxCell id="OT1QADH4c9V43DRPaBbd-25" value="(64, 64, 64)" style="shape=partialRectangle;html=1;whiteSpace=wrap;connectable=0;strokeColor=inherit;overflow=hidden;fillColor=none;top=0;left=0;bottom=0;right=0;pointerEvents=1;fontSize=16;rounded=1;" parent="OT1QADH4c9V43DRPaBbd-23" vertex="1">
                    <mxGeometry x="163" width="166" height="73" as="geometry">
                        <mxRectangle width="166" height="73" as="alternateBounds"/>
                    </mxGeometry>
                </mxCell>
                <mxCell id="OT1QADH4c9V43DRPaBbd-26" value="18496" style="shape=partialRectangle;html=1;whiteSpace=wrap;connectable=0;strokeColor=inherit;overflow=hidden;fillColor=none;top=0;left=0;bottom=0;right=0;pointerEvents=1;fontSize=16;rounded=1;" parent="OT1QADH4c9V43DRPaBbd-23" vertex="1">
                    <mxGeometry x="329" width="163" height="73" as="geometry">
                        <mxRectangle width="163" height="73" as="alternateBounds"/>
                    </mxGeometry>
                </mxCell>
                <mxCell id="OT1QADH4c9V43DRPaBbd-27" style="shape=tableRow;horizontal=0;startSize=0;swimlaneHead=0;swimlaneBody=0;strokeColor=inherit;top=0;left=0;bottom=0;right=0;collapsible=0;dropTarget=0;fillColor=none;points=[[0,0.5],[1,0.5]];portConstraint=eastwest;fontSize=16;rounded=1;" parent="OT1QADH4c9V43DRPaBbd-1" vertex="1">
                    <mxGeometry y="439" width="492.3809523809524" height="73" as="geometry"/>
                </mxCell>
                <mxCell id="OT1QADH4c9V43DRPaBbd-28" value="Max Pool" style="shape=partialRectangle;html=1;whiteSpace=wrap;connectable=0;strokeColor=inherit;overflow=hidden;fillColor=none;top=0;left=0;bottom=0;right=0;pointerEvents=1;fontSize=16;rounded=1;" parent="OT1QADH4c9V43DRPaBbd-27" vertex="1">
                    <mxGeometry width="163" height="73" as="geometry">
                        <mxRectangle width="163" height="73" as="alternateBounds"/>
                    </mxGeometry>
                </mxCell>
                <mxCell id="OT1QADH4c9V43DRPaBbd-29" value="(32, 32, 64)" style="shape=partialRectangle;html=1;whiteSpace=wrap;connectable=0;strokeColor=inherit;overflow=hidden;fillColor=none;top=0;left=0;bottom=0;right=0;pointerEvents=1;fontSize=16;rounded=1;" parent="OT1QADH4c9V43DRPaBbd-27" vertex="1">
                    <mxGeometry x="163" width="166" height="73" as="geometry">
                        <mxRectangle width="166" height="73" as="alternateBounds"/>
                    </mxGeometry>
                </mxCell>
                <mxCell id="OT1QADH4c9V43DRPaBbd-30" value="0" style="shape=partialRectangle;html=1;whiteSpace=wrap;connectable=0;strokeColor=inherit;overflow=hidden;fillColor=none;top=0;left=0;bottom=0;right=0;pointerEvents=1;fontSize=16;rounded=1;" parent="OT1QADH4c9V43DRPaBbd-27" vertex="1">
                    <mxGeometry x="329" width="163" height="73" as="geometry">
                        <mxRectangle width="163" height="73" as="alternateBounds"/>
                    </mxGeometry>
                </mxCell>
                <mxCell id="OT1QADH4c9V43DRPaBbd-31" style="shape=tableRow;horizontal=0;startSize=0;swimlaneHead=0;swimlaneBody=0;strokeColor=inherit;top=0;left=0;bottom=0;right=0;collapsible=0;dropTarget=0;fillColor=none;points=[[0,0.5],[1,0.5]];portConstraint=eastwest;fontSize=16;rounded=1;" parent="OT1QADH4c9V43DRPaBbd-1" vertex="1">
                    <mxGeometry y="512" width="492.3809523809524" height="73" as="geometry"/>
                </mxCell>
                <mxCell id="OT1QADH4c9V43DRPaBbd-32" value="Convolution" style="shape=partialRectangle;html=1;whiteSpace=wrap;connectable=0;strokeColor=inherit;overflow=hidden;fillColor=none;top=0;left=0;bottom=0;right=0;pointerEvents=1;fontSize=16;rounded=1;" parent="OT1QADH4c9V43DRPaBbd-31" vertex="1">
                    <mxGeometry width="163" height="73" as="geometry">
                        <mxRectangle width="163" height="73" as="alternateBounds"/>
                    </mxGeometry>
                </mxCell>
                <mxCell id="OT1QADH4c9V43DRPaBbd-33" value="(32, 32, 64)" style="shape=partialRectangle;html=1;whiteSpace=wrap;connectable=0;strokeColor=inherit;overflow=hidden;fillColor=none;top=0;left=0;bottom=0;right=0;pointerEvents=1;fontSize=16;rounded=1;" parent="OT1QADH4c9V43DRPaBbd-31" vertex="1">
                    <mxGeometry x="163" width="166" height="73" as="geometry">
                        <mxRectangle width="166" height="73" as="alternateBounds"/>
                    </mxGeometry>
                </mxCell>
                <mxCell id="OT1QADH4c9V43DRPaBbd-34" value="36928" style="shape=partialRectangle;html=1;whiteSpace=wrap;connectable=0;strokeColor=inherit;overflow=hidden;fillColor=none;top=0;left=0;bottom=0;right=0;pointerEvents=1;fontSize=16;rounded=1;" parent="OT1QADH4c9V43DRPaBbd-31" vertex="1">
                    <mxGeometry x="329" width="163" height="73" as="geometry">
                        <mxRectangle width="163" height="73" as="alternateBounds"/>
                    </mxGeometry>
                </mxCell>
                <mxCell id="OT1QADH4c9V43DRPaBbd-35" style="shape=tableRow;horizontal=0;startSize=0;swimlaneHead=0;swimlaneBody=0;strokeColor=inherit;top=0;left=0;bottom=0;right=0;collapsible=0;dropTarget=0;fillColor=none;points=[[0,0.5],[1,0.5]];portConstraint=eastwest;fontSize=16;rounded=1;" parent="OT1QADH4c9V43DRPaBbd-1" vertex="1">
                    <mxGeometry y="585" width="492.3809523809524" height="73" as="geometry"/>
                </mxCell>
                <mxCell id="OT1QADH4c9V43DRPaBbd-36" value="Max Pool" style="shape=partialRectangle;html=1;whiteSpace=wrap;connectable=0;strokeColor=inherit;overflow=hidden;fillColor=none;top=0;left=0;bottom=0;right=0;pointerEvents=1;fontSize=16;rounded=1;" parent="OT1QADH4c9V43DRPaBbd-35" vertex="1">
                    <mxGeometry width="163" height="73" as="geometry">
                        <mxRectangle width="163" height="73" as="alternateBounds"/>
                    </mxGeometry>
                </mxCell>
                <mxCell id="OT1QADH4c9V43DRPaBbd-37" value="(16, 16, 64)" style="shape=partialRectangle;html=1;whiteSpace=wrap;connectable=0;strokeColor=inherit;overflow=hidden;fillColor=none;top=0;left=0;bottom=0;right=0;pointerEvents=1;fontSize=16;rounded=1;" parent="OT1QADH4c9V43DRPaBbd-35" vertex="1">
                    <mxGeometry x="163" width="166" height="73" as="geometry">
                        <mxRectangle width="166" height="73" as="alternateBounds"/>
                    </mxGeometry>
                </mxCell>
                <mxCell id="OT1QADH4c9V43DRPaBbd-38" value="0" style="shape=partialRectangle;html=1;whiteSpace=wrap;connectable=0;strokeColor=inherit;overflow=hidden;fillColor=none;top=0;left=0;bottom=0;right=0;pointerEvents=1;fontSize=16;rounded=1;" parent="OT1QADH4c9V43DRPaBbd-35" vertex="1">
                    <mxGeometry x="329" width="163" height="73" as="geometry">
                        <mxRectangle width="163" height="73" as="alternateBounds"/>
                    </mxGeometry>
                </mxCell>
                <mxCell id="OT1QADH4c9V43DRPaBbd-39" style="shape=tableRow;horizontal=0;startSize=0;swimlaneHead=0;swimlaneBody=0;strokeColor=inherit;top=0;left=0;bottom=0;right=0;collapsible=0;dropTarget=0;fillColor=none;points=[[0,0.5],[1,0.5]];portConstraint=eastwest;fontSize=16;rounded=1;" parent="OT1QADH4c9V43DRPaBbd-1" vertex="1">
                    <mxGeometry y="658" width="492.3809523809524" height="73" as="geometry"/>
                </mxCell>
                <mxCell id="OT1QADH4c9V43DRPaBbd-40" value="Dropout" style="shape=partialRectangle;html=1;whiteSpace=wrap;connectable=0;strokeColor=inherit;overflow=hidden;fillColor=none;top=0;left=0;bottom=0;right=0;pointerEvents=1;fontSize=16;rounded=1;" parent="OT1QADH4c9V43DRPaBbd-39" vertex="1">
                    <mxGeometry width="163" height="73" as="geometry">
                        <mxRectangle width="163" height="73" as="alternateBounds"/>
                    </mxGeometry>
                </mxCell>
                <mxCell id="OT1QADH4c9V43DRPaBbd-41" value="(16, 16, 64)" style="shape=partialRectangle;html=1;whiteSpace=wrap;connectable=0;strokeColor=inherit;overflow=hidden;fillColor=none;top=0;left=0;bottom=0;right=0;pointerEvents=1;fontSize=16;rounded=1;" parent="OT1QADH4c9V43DRPaBbd-39" vertex="1">
                    <mxGeometry x="163" width="166" height="73" as="geometry">
                        <mxRectangle width="166" height="73" as="alternateBounds"/>
                    </mxGeometry>
                </mxCell>
                <mxCell id="OT1QADH4c9V43DRPaBbd-42" value="0" style="shape=partialRectangle;html=1;whiteSpace=wrap;connectable=0;strokeColor=inherit;overflow=hidden;fillColor=none;top=0;left=0;bottom=0;right=0;pointerEvents=1;fontSize=16;rounded=1;" parent="OT1QADH4c9V43DRPaBbd-39" vertex="1">
                    <mxGeometry x="329" width="163" height="73" as="geometry">
                        <mxRectangle width="163" height="73" as="alternateBounds"/>
                    </mxGeometry>
                </mxCell>
                <mxCell id="OT1QADH4c9V43DRPaBbd-43" style="shape=tableRow;horizontal=0;startSize=0;swimlaneHead=0;swimlaneBody=0;strokeColor=inherit;top=0;left=0;bottom=0;right=0;collapsible=0;dropTarget=0;fillColor=none;points=[[0,0.5],[1,0.5]];portConstraint=eastwest;fontSize=16;rounded=1;" parent="OT1QADH4c9V43DRPaBbd-1" vertex="1">
                    <mxGeometry y="731" width="492.3809523809524" height="73" as="geometry"/>
                </mxCell>
                <mxCell id="OT1QADH4c9V43DRPaBbd-44" value="Convolution" style="shape=partialRectangle;html=1;whiteSpace=wrap;connectable=0;strokeColor=inherit;overflow=hidden;fillColor=none;top=0;left=0;bottom=0;right=0;pointerEvents=1;fontSize=16;rounded=1;" parent="OT1QADH4c9V43DRPaBbd-43" vertex="1">
                    <mxGeometry width="163" height="73" as="geometry">
                        <mxRectangle width="163" height="73" as="alternateBounds"/>
                    </mxGeometry>
                </mxCell>
                <mxCell id="OT1QADH4c9V43DRPaBbd-45" value="(16, 16, 64)" style="shape=partialRectangle;html=1;whiteSpace=wrap;connectable=0;strokeColor=inherit;overflow=hidden;fillColor=none;top=0;left=0;bottom=0;right=0;pointerEvents=1;fontSize=16;rounded=1;" parent="OT1QADH4c9V43DRPaBbd-43" vertex="1">
                    <mxGeometry x="163" width="166" height="73" as="geometry">
                        <mxRectangle width="166" height="73" as="alternateBounds"/>
                    </mxGeometry>
                </mxCell>
                <mxCell id="OT1QADH4c9V43DRPaBbd-46" value="36928" style="shape=partialRectangle;html=1;whiteSpace=wrap;connectable=0;strokeColor=inherit;overflow=hidden;fillColor=none;top=0;left=0;bottom=0;right=0;pointerEvents=1;fontSize=16;rounded=1;" parent="OT1QADH4c9V43DRPaBbd-43" vertex="1">
                    <mxGeometry x="329" width="163" height="73" as="geometry">
                        <mxRectangle width="163" height="73" as="alternateBounds"/>
                    </mxGeometry>
                </mxCell>
                <mxCell id="OT1QADH4c9V43DRPaBbd-47" style="shape=tableRow;horizontal=0;startSize=0;swimlaneHead=0;swimlaneBody=0;strokeColor=inherit;top=0;left=0;bottom=0;right=0;collapsible=0;dropTarget=0;fillColor=none;points=[[0,0.5],[1,0.5]];portConstraint=eastwest;fontSize=16;rounded=1;" parent="OT1QADH4c9V43DRPaBbd-1" vertex="1">
                    <mxGeometry y="804" width="492.3809523809524" height="73" as="geometry"/>
                </mxCell>
                <mxCell id="OT1QADH4c9V43DRPaBbd-48" value="Max Pool" style="shape=partialRectangle;html=1;whiteSpace=wrap;connectable=0;strokeColor=inherit;overflow=hidden;fillColor=none;top=0;left=0;bottom=0;right=0;pointerEvents=1;fontSize=16;rounded=1;" parent="OT1QADH4c9V43DRPaBbd-47" vertex="1">
                    <mxGeometry width="163" height="73" as="geometry">
                        <mxRectangle width="163" height="73" as="alternateBounds"/>
                    </mxGeometry>
                </mxCell>
                <mxCell id="OT1QADH4c9V43DRPaBbd-49" value="(8, 8, 64)" style="shape=partialRectangle;html=1;whiteSpace=wrap;connectable=0;strokeColor=inherit;overflow=hidden;fillColor=none;top=0;left=0;bottom=0;right=0;pointerEvents=1;fontSize=16;rounded=1;" parent="OT1QADH4c9V43DRPaBbd-47" vertex="1">
                    <mxGeometry x="163" width="166" height="73" as="geometry">
                        <mxRectangle width="166" height="73" as="alternateBounds"/>
                    </mxGeometry>
                </mxCell>
                <mxCell id="OT1QADH4c9V43DRPaBbd-50" value="0" style="shape=partialRectangle;html=1;whiteSpace=wrap;connectable=0;strokeColor=inherit;overflow=hidden;fillColor=none;top=0;left=0;bottom=0;right=0;pointerEvents=1;fontSize=16;rounded=1;" parent="OT1QADH4c9V43DRPaBbd-47" vertex="1">
                    <mxGeometry x="329" width="163" height="73" as="geometry">
                        <mxRectangle width="163" height="73" as="alternateBounds"/>
                    </mxGeometry>
                </mxCell>
                <mxCell id="OT1QADH4c9V43DRPaBbd-51" style="shape=tableRow;horizontal=0;startSize=0;swimlaneHead=0;swimlaneBody=0;strokeColor=inherit;top=0;left=0;bottom=0;right=0;collapsible=0;dropTarget=0;fillColor=none;points=[[0,0.5],[1,0.5]];portConstraint=eastwest;fontSize=16;rounded=1;" parent="OT1QADH4c9V43DRPaBbd-1" vertex="1">
                    <mxGeometry y="877" width="492.3809523809524" height="73" as="geometry"/>
                </mxCell>
                <mxCell id="OT1QADH4c9V43DRPaBbd-52" value="Convolution" style="shape=partialRectangle;html=1;whiteSpace=wrap;connectable=0;strokeColor=inherit;overflow=hidden;fillColor=none;top=0;left=0;bottom=0;right=0;pointerEvents=1;fontSize=16;rounded=1;" parent="OT1QADH4c9V43DRPaBbd-51" vertex="1">
                    <mxGeometry width="163" height="73" as="geometry">
                        <mxRectangle width="163" height="73" as="alternateBounds"/>
                    </mxGeometry>
                </mxCell>
                <mxCell id="OT1QADH4c9V43DRPaBbd-53" value="(8, 8, 64)" style="shape=partialRectangle;html=1;whiteSpace=wrap;connectable=0;strokeColor=inherit;overflow=hidden;fillColor=none;top=0;left=0;bottom=0;right=0;pointerEvents=1;fontSize=16;rounded=1;" parent="OT1QADH4c9V43DRPaBbd-51" vertex="1">
                    <mxGeometry x="163" width="166" height="73" as="geometry">
                        <mxRectangle width="166" height="73" as="alternateBounds"/>
                    </mxGeometry>
                </mxCell>
                <mxCell id="OT1QADH4c9V43DRPaBbd-54" value="36928" style="shape=partialRectangle;html=1;whiteSpace=wrap;connectable=0;strokeColor=inherit;overflow=hidden;fillColor=none;top=0;left=0;bottom=0;right=0;pointerEvents=1;fontSize=16;rounded=1;" parent="OT1QADH4c9V43DRPaBbd-51" vertex="1">
                    <mxGeometry x="329" width="163" height="73" as="geometry">
                        <mxRectangle width="163" height="73" as="alternateBounds"/>
                    </mxGeometry>
                </mxCell>
                <mxCell id="OT1QADH4c9V43DRPaBbd-55" style="shape=tableRow;horizontal=0;startSize=0;swimlaneHead=0;swimlaneBody=0;strokeColor=inherit;top=0;left=0;bottom=0;right=0;collapsible=0;dropTarget=0;fillColor=none;points=[[0,0.5],[1,0.5]];portConstraint=eastwest;fontSize=16;rounded=1;" parent="OT1QADH4c9V43DRPaBbd-1" vertex="1">
                    <mxGeometry y="950" width="492.3809523809524" height="73" as="geometry"/>
                </mxCell>
                <mxCell id="OT1QADH4c9V43DRPaBbd-56" value="Max Pool" style="shape=partialRectangle;html=1;whiteSpace=wrap;connectable=0;strokeColor=inherit;overflow=hidden;fillColor=none;top=0;left=0;bottom=0;right=0;pointerEvents=1;fontSize=16;rounded=1;" parent="OT1QADH4c9V43DRPaBbd-55" vertex="1">
                    <mxGeometry width="163" height="73" as="geometry">
                        <mxRectangle width="163" height="73" as="alternateBounds"/>
                    </mxGeometry>
                </mxCell>
                <mxCell id="OT1QADH4c9V43DRPaBbd-57" value="(4, 4, 64)" style="shape=partialRectangle;html=1;whiteSpace=wrap;connectable=0;strokeColor=inherit;overflow=hidden;fillColor=none;top=0;left=0;bottom=0;right=0;pointerEvents=1;fontSize=16;rounded=1;" parent="OT1QADH4c9V43DRPaBbd-55" vertex="1">
                    <mxGeometry x="163" width="166" height="73" as="geometry">
                        <mxRectangle width="166" height="73" as="alternateBounds"/>
                    </mxGeometry>
                </mxCell>
                <mxCell id="OT1QADH4c9V43DRPaBbd-58" value="0" style="shape=partialRectangle;html=1;whiteSpace=wrap;connectable=0;strokeColor=inherit;overflow=hidden;fillColor=none;top=0;left=0;bottom=0;right=0;pointerEvents=1;fontSize=16;rounded=1;" parent="OT1QADH4c9V43DRPaBbd-55" vertex="1">
                    <mxGeometry x="329" width="163" height="73" as="geometry">
                        <mxRectangle width="163" height="73" as="alternateBounds"/>
                    </mxGeometry>
                </mxCell>
                <mxCell id="OT1QADH4c9V43DRPaBbd-59" style="shape=tableRow;horizontal=0;startSize=0;swimlaneHead=0;swimlaneBody=0;strokeColor=inherit;top=0;left=0;bottom=0;right=0;collapsible=0;dropTarget=0;fillColor=none;points=[[0,0.5],[1,0.5]];portConstraint=eastwest;fontSize=16;rounded=1;" parent="OT1QADH4c9V43DRPaBbd-1" vertex="1">
                    <mxGeometry y="1023" width="492.3809523809524" height="73" as="geometry"/>
                </mxCell>
                <mxCell id="OT1QADH4c9V43DRPaBbd-60" value="Dropout" style="shape=partialRectangle;html=1;whiteSpace=wrap;connectable=0;strokeColor=inherit;overflow=hidden;fillColor=none;top=0;left=0;bottom=0;right=0;pointerEvents=1;fontSize=16;rounded=1;" parent="OT1QADH4c9V43DRPaBbd-59" vertex="1">
                    <mxGeometry width="163" height="73" as="geometry">
                        <mxRectangle width="163" height="73" as="alternateBounds"/>
                    </mxGeometry>
                </mxCell>
                <mxCell id="OT1QADH4c9V43DRPaBbd-61" value="(4, 4, 64)" style="shape=partialRectangle;html=1;whiteSpace=wrap;connectable=0;strokeColor=inherit;overflow=hidden;fillColor=none;top=0;left=0;bottom=0;right=0;pointerEvents=1;fontSize=16;rounded=1;" parent="OT1QADH4c9V43DRPaBbd-59" vertex="1">
                    <mxGeometry x="163" width="166" height="73" as="geometry">
                        <mxRectangle width="166" height="73" as="alternateBounds"/>
                    </mxGeometry>
                </mxCell>
                <mxCell id="OT1QADH4c9V43DRPaBbd-62" value="0" style="shape=partialRectangle;html=1;whiteSpace=wrap;connectable=0;strokeColor=inherit;overflow=hidden;fillColor=none;top=0;left=0;bottom=0;right=0;pointerEvents=1;fontSize=16;rounded=1;" parent="OT1QADH4c9V43DRPaBbd-59" vertex="1">
                    <mxGeometry x="329" width="163" height="73" as="geometry">
                        <mxRectangle width="163" height="73" as="alternateBounds"/>
                    </mxGeometry>
                </mxCell>
                <mxCell id="OT1QADH4c9V43DRPaBbd-63" style="shape=tableRow;horizontal=0;startSize=0;swimlaneHead=0;swimlaneBody=0;strokeColor=inherit;top=0;left=0;bottom=0;right=0;collapsible=0;dropTarget=0;fillColor=none;points=[[0,0.5],[1,0.5]];portConstraint=eastwest;fontSize=16;rounded=1;" parent="OT1QADH4c9V43DRPaBbd-1" vertex="1">
                    <mxGeometry y="1096" width="492.3809523809524" height="73" as="geometry"/>
                </mxCell>
                <mxCell id="OT1QADH4c9V43DRPaBbd-64" value="Flatten" style="shape=partialRectangle;html=1;whiteSpace=wrap;connectable=0;strokeColor=inherit;overflow=hidden;fillColor=none;top=0;left=0;bottom=0;right=0;pointerEvents=1;fontSize=16;rounded=1;" parent="OT1QADH4c9V43DRPaBbd-63" vertex="1">
                    <mxGeometry width="163" height="73" as="geometry">
                        <mxRectangle width="163" height="73" as="alternateBounds"/>
                    </mxGeometry>
                </mxCell>
                <mxCell id="OT1QADH4c9V43DRPaBbd-65" value="(1024)" style="shape=partialRectangle;html=1;whiteSpace=wrap;connectable=0;strokeColor=inherit;overflow=hidden;fillColor=none;top=0;left=0;bottom=0;right=0;pointerEvents=1;fontSize=16;rounded=1;" parent="OT1QADH4c9V43DRPaBbd-63" vertex="1">
                    <mxGeometry x="163" width="166" height="73" as="geometry">
                        <mxRectangle width="166" height="73" as="alternateBounds"/>
                    </mxGeometry>
                </mxCell>
                <mxCell id="OT1QADH4c9V43DRPaBbd-66" value="0" style="shape=partialRectangle;html=1;whiteSpace=wrap;connectable=0;strokeColor=inherit;overflow=hidden;fillColor=none;top=0;left=0;bottom=0;right=0;pointerEvents=1;fontSize=16;rounded=1;" parent="OT1QADH4c9V43DRPaBbd-63" vertex="1">
                    <mxGeometry x="329" width="163" height="73" as="geometry">
                        <mxRectangle width="163" height="73" as="alternateBounds"/>
                    </mxGeometry>
                </mxCell>
                <mxCell id="OT1QADH4c9V43DRPaBbd-67" style="shape=tableRow;horizontal=0;startSize=0;swimlaneHead=0;swimlaneBody=0;strokeColor=inherit;top=0;left=0;bottom=0;right=0;collapsible=0;dropTarget=0;fillColor=none;points=[[0,0.5],[1,0.5]];portConstraint=eastwest;fontSize=16;rounded=1;" parent="OT1QADH4c9V43DRPaBbd-1" vertex="1">
                    <mxGeometry y="1169" width="492.3809523809524" height="73" as="geometry"/>
                </mxCell>
                <mxCell id="OT1QADH4c9V43DRPaBbd-68" value="Dense" style="shape=partialRectangle;html=1;whiteSpace=wrap;connectable=0;strokeColor=inherit;overflow=hidden;fillColor=none;top=0;left=0;bottom=0;right=0;pointerEvents=1;fontSize=16;rounded=1;" parent="OT1QADH4c9V43DRPaBbd-67" vertex="1">
                    <mxGeometry width="163" height="73" as="geometry">
                        <mxRectangle width="163" height="73" as="alternateBounds"/>
                    </mxGeometry>
                </mxCell>
                <mxCell id="OT1QADH4c9V43DRPaBbd-69" value="(1500)" style="shape=partialRectangle;html=1;whiteSpace=wrap;connectable=0;strokeColor=inherit;overflow=hidden;fillColor=none;top=0;left=0;bottom=0;right=0;pointerEvents=1;fontSize=16;rounded=1;" parent="OT1QADH4c9V43DRPaBbd-67" vertex="1">
                    <mxGeometry x="163" width="166" height="73" as="geometry">
                        <mxRectangle width="166" height="73" as="alternateBounds"/>
                    </mxGeometry>
                </mxCell>
                <mxCell id="OT1QADH4c9V43DRPaBbd-70" value="1537500" style="shape=partialRectangle;html=1;whiteSpace=wrap;connectable=0;strokeColor=inherit;overflow=hidden;fillColor=none;top=0;left=0;bottom=0;right=0;pointerEvents=1;fontSize=16;rounded=1;" parent="OT1QADH4c9V43DRPaBbd-67" vertex="1">
                    <mxGeometry x="329" width="163" height="73" as="geometry">
                        <mxRectangle width="163" height="73" as="alternateBounds"/>
                    </mxGeometry>
                </mxCell>
                <mxCell id="OT1QADH4c9V43DRPaBbd-71" style="shape=tableRow;horizontal=0;startSize=0;swimlaneHead=0;swimlaneBody=0;strokeColor=inherit;top=0;left=0;bottom=0;right=0;collapsible=0;dropTarget=0;fillColor=none;points=[[0,0.5],[1,0.5]];portConstraint=eastwest;fontSize=16;rounded=1;" parent="OT1QADH4c9V43DRPaBbd-1" vertex="1">
                    <mxGeometry y="1242" width="492.3809523809524" height="73" as="geometry"/>
                </mxCell>
                <mxCell id="OT1QADH4c9V43DRPaBbd-72" value="Dropout" style="shape=partialRectangle;html=1;whiteSpace=wrap;connectable=0;strokeColor=inherit;overflow=hidden;fillColor=none;top=0;left=0;bottom=0;right=0;pointerEvents=1;fontSize=16;rounded=1;" parent="OT1QADH4c9V43DRPaBbd-71" vertex="1">
                    <mxGeometry width="163" height="73" as="geometry">
                        <mxRectangle width="163" height="73" as="alternateBounds"/>
                    </mxGeometry>
                </mxCell>
                <mxCell id="OT1QADH4c9V43DRPaBbd-73" value="(1500)" style="shape=partialRectangle;html=1;whiteSpace=wrap;connectable=0;strokeColor=inherit;overflow=hidden;fillColor=none;top=0;left=0;bottom=0;right=0;pointerEvents=1;fontSize=16;rounded=1;" parent="OT1QADH4c9V43DRPaBbd-71" vertex="1">
                    <mxGeometry x="163" width="166" height="73" as="geometry">
                        <mxRectangle width="166" height="73" as="alternateBounds"/>
                    </mxGeometry>
                </mxCell>
                <mxCell id="OT1QADH4c9V43DRPaBbd-74" value="0" style="shape=partialRectangle;html=1;whiteSpace=wrap;connectable=0;strokeColor=inherit;overflow=hidden;fillColor=none;top=0;left=0;bottom=0;right=0;pointerEvents=1;fontSize=16;rounded=1;" parent="OT1QADH4c9V43DRPaBbd-71" vertex="1">
                    <mxGeometry x="329" width="163" height="73" as="geometry">
                        <mxRectangle width="163" height="73" as="alternateBounds"/>
                    </mxGeometry>
                </mxCell>
                <mxCell id="OT1QADH4c9V43DRPaBbd-75" style="shape=tableRow;horizontal=0;startSize=0;swimlaneHead=0;swimlaneBody=0;strokeColor=inherit;top=0;left=0;bottom=0;right=0;collapsible=0;dropTarget=0;fillColor=none;points=[[0,0.5],[1,0.5]];portConstraint=eastwest;fontSize=16;rounded=1;" parent="OT1QADH4c9V43DRPaBbd-1" vertex="1">
                    <mxGeometry y="1315" width="492.3809523809524" height="73" as="geometry"/>
                </mxCell>
                <mxCell id="OT1QADH4c9V43DRPaBbd-76" value="Dense" style="shape=partialRectangle;html=1;whiteSpace=wrap;connectable=0;strokeColor=inherit;overflow=hidden;fillColor=none;top=0;left=0;bottom=0;right=0;pointerEvents=1;fontSize=16;rounded=1;" parent="OT1QADH4c9V43DRPaBbd-75" vertex="1">
                    <mxGeometry width="163" height="73" as="geometry">
                        <mxRectangle width="163" height="73" as="alternateBounds"/>
                    </mxGeometry>
                </mxCell>
                <mxCell id="OT1QADH4c9V43DRPaBbd-77" value="(38)" style="shape=partialRectangle;html=1;whiteSpace=wrap;connectable=0;strokeColor=inherit;overflow=hidden;fillColor=none;top=0;left=0;bottom=0;right=0;pointerEvents=1;fontSize=16;rounded=1;" parent="OT1QADH4c9V43DRPaBbd-75" vertex="1">
                    <mxGeometry x="163" width="166" height="73" as="geometry">
                        <mxRectangle width="166" height="73" as="alternateBounds"/>
                    </mxGeometry>
                </mxCell>
                <mxCell id="OT1QADH4c9V43DRPaBbd-78" value="57038" style="shape=partialRectangle;html=1;whiteSpace=wrap;connectable=0;strokeColor=inherit;overflow=hidden;fillColor=none;top=0;left=0;bottom=0;right=0;pointerEvents=1;fontSize=16;rounded=1;" parent="OT1QADH4c9V43DRPaBbd-75" vertex="1">
                    <mxGeometry x="329" width="163" height="73" as="geometry">
                        <mxRectangle width="163" height="73" as="alternateBounds"/>
                    </mxGeometry>
                </mxCell>
                <mxCell id="26" value="&lt;div style=&quot;&quot;&gt;&lt;span style=&quot;font-size: 26px; background-color: initial;&quot;&gt;Optimiser = Adam&lt;/span&gt;&lt;/div&gt;" style="rounded=1;whiteSpace=wrap;html=1;fontSize=20;align=center;" parent="33" vertex="1">
                    <mxGeometry x="691.4285714285714" y="290" width="565.7142857142858" height="150" as="geometry"/>
                </mxCell>
                <mxCell id="27" value="&lt;div style=&quot;&quot;&gt;&lt;span style=&quot;font-size: 26px; background-color: initial;&quot;&gt;Loss Function = Categorical Crossentopy&lt;/span&gt;&lt;/div&gt;" style="rounded=1;whiteSpace=wrap;html=1;fontSize=20;align=center;" parent="33" vertex="1">
                    <mxGeometry x="691.4285714285714" y="495" width="565.7142857142858" height="150" as="geometry"/>
                </mxCell>
                <mxCell id="28" value="&lt;div style=&quot;&quot;&gt;&lt;span style=&quot;font-size: 26px; background-color: initial;&quot;&gt;Learning Rate = 0.0001&lt;/span&gt;&lt;/div&gt;" style="rounded=1;whiteSpace=wrap;html=1;fontSize=20;align=center;" parent="33" vertex="1">
                    <mxGeometry x="691.4285714285714" y="700" width="565.7142857142858" height="150" as="geometry"/>
                </mxCell>
                <mxCell id="29" value="&lt;div style=&quot;&quot;&gt;&lt;font style=&quot;font-size: 26px;&quot;&gt;Epochs: 10&lt;/font&gt;&lt;/div&gt;" style="rounded=1;whiteSpace=wrap;html=1;fontSize=20;align=center;" parent="33" vertex="1">
                    <mxGeometry x="691.4285714285714" y="920" width="565.7142857142858" height="162" as="geometry"/>
                </mxCell>
                <mxCell id="30" value="&lt;div style=&quot;&quot;&gt;&lt;span style=&quot;background-color: initial;&quot;&gt;&lt;font style=&quot;font-size: 30px;&quot;&gt;Activation Function&lt;/font&gt;&lt;/span&gt;&lt;span style=&quot;font-size: 26px; background-color: initial;&quot;&gt;&amp;nbsp;&lt;/span&gt;&lt;/div&gt;&lt;div style=&quot;&quot;&gt;&lt;span style=&quot;font-size: 26px; background-color: initial;&quot;&gt;&lt;br&gt;&lt;/span&gt;&lt;/div&gt;&lt;div style=&quot;&quot;&gt;&lt;span style=&quot;font-size: 26px; background-color: initial;&quot;&gt;Hidden Layer: ReLU&lt;/span&gt;&lt;/div&gt;&lt;div style=&quot;&quot;&gt;&lt;span style=&quot;font-size: 26px; background-color: initial;&quot;&gt;Output Layer: Softmax&lt;/span&gt;&lt;/div&gt;" style="rounded=1;whiteSpace=wrap;html=1;fontSize=20;align=center;" parent="33" vertex="1">
                    <mxGeometry x="691.4285714285714" y="1157" width="565.7142857142858" height="200" as="geometry"/>
                </mxCell>
                <mxCell id="42" style="edgeStyle=none;html=1;fontSize=30;rounded=1;" parent="1" source="31" target="32" edge="1">
                    <mxGeometry relative="1" as="geometry"/>
                </mxCell>
                <mxCell id="31" value="Model Evaluation&lt;br&gt;&lt;br&gt;&lt;div style=&quot;text-align: left;&quot;&gt;&lt;span style=&quot;background-color: initial;&quot;&gt;1. Accuracy&lt;/span&gt;&lt;/div&gt;&lt;div style=&quot;text-align: left;&quot;&gt;&lt;span style=&quot;background-color: initial;&quot;&gt;2. Loss&lt;/span&gt;&lt;/div&gt;&lt;div style=&quot;text-align: left;&quot;&gt;&lt;span style=&quot;background-color: initial;&quot;&gt;3. Precission&lt;/span&gt;&lt;/div&gt;&lt;div style=&quot;text-align: left;&quot;&gt;&lt;span style=&quot;background-color: initial;&quot;&gt;4. Recall&lt;/span&gt;&lt;/div&gt;&lt;div style=&quot;text-align: left;&quot;&gt;&lt;span style=&quot;background-color: initial;&quot;&gt;5. F-1 Score&lt;/span&gt;&lt;/div&gt;&lt;div style=&quot;text-align: left;&quot;&gt;&lt;span style=&quot;background-color: initial;&quot;&gt;6. Confusion Matrix&lt;/span&gt;&lt;/div&gt;" style="rounded=1;whiteSpace=wrap;html=1;fontSize=26;" parent="1" vertex="1">
                    <mxGeometry x="1520" y="420" width="440" height="340" as="geometry"/>
                </mxCell>
                <mxCell id="32" value="&lt;font style=&quot;font-size: 30px;&quot;&gt;Testing&lt;br&gt;&amp;amp;&lt;br&gt;Prediction&lt;/font&gt;" style="rounded=1;whiteSpace=wrap;html=1;fontSize=26;" parent="1" vertex="1">
                    <mxGeometry x="2090" y="420" width="440" height="340" as="geometry"/>
                </mxCell>
                <mxCell id="34" style="edgeStyle=none;html=1;entryX=0;entryY=0.5;entryDx=0;entryDy=0;fontSize=30;rounded=1;" parent="1" source="2" target="18" edge="1">
                    <mxGeometry relative="1" as="geometry"/>
                </mxCell>
                <mxCell id="36" style="edgeStyle=none;html=1;entryX=0.5;entryY=0;entryDx=0;entryDy=0;fontSize=30;rounded=1;" parent="1" source="18" target="24" edge="1">
                    <mxGeometry relative="1" as="geometry">
                        <Array as="points">
                            <mxPoint x="-330" y="-360"/>
                            <mxPoint x="630" y="-360"/>
                        </Array>
                    </mxGeometry>
                </mxCell>
                <mxCell id="41" style="edgeStyle=none;html=1;entryX=0.5;entryY=1;entryDx=0;entryDy=0;fontSize=30;exitX=0.5;exitY=1;exitDx=0;exitDy=0;rounded=1;" parent="1" source="24" target="31" edge="1">
                    <mxGeometry relative="1" as="geometry">
                        <Array as="points">
                            <mxPoint x="630" y="1750"/>
                            <mxPoint x="1730" y="1750"/>
                        </Array>
                    </mxGeometry>
                </mxCell>
            </root>
        </mxGraphModel>
    </diagram>
</mxfile>